<svg width="60" height="60" viewBox="0 0 60 60" fill="none" xmlns="http://www.w3.org/2000/svg">
<path d="M56.7772 13.7108H51.3866V3.22263C51.3853 2.36842 51.0455 1.5494 50.4411 0.94544C49.8372 0.341096 49.0182 0.00125356 48.1639 0H11.8359C10.9817 0.00125559 10.1627 0.341096 9.55872 0.94544C8.95436 1.54937 8.61452 2.36839 8.61326 3.22263V13.7108H3.22267C2.36845 13.7121 1.54942 14.0519 0.945453 14.6563C0.341101 15.2602 0.00125358 16.0792 0 16.9335V47.4024C0.00125561 48.2567 0.341101 49.0757 0.945453 49.6796C1.54939 50.284 2.36842 50.6238 3.22267 50.6251H22.6756V55.241L19.6743 58.2422H14.7654C14.2799 58.2422 13.8865 58.6356 13.8865 59.1211C13.8865 59.6066 14.2799 60 14.7654 60H45.2348C45.7203 60 46.1137 59.6066 46.1137 59.1211C46.1137 58.6356 45.7203 58.2422 45.2348 58.2422H40.3259L37.3246 55.241V50.6251H56.7776C57.6318 50.6238 58.4508 50.284 59.0548 49.6796C59.6591 49.0757 59.999 48.2567 60.0002 47.4024V16.9335C59.999 16.0793 59.6591 15.2602 59.0548 14.6563C58.4508 14.0519 57.6318 13.7121 56.7776 13.7108H56.7772ZM56.7772 15.4686C57.5858 15.4699 58.2407 16.1249 58.242 16.9335V43.0075H51.3866V15.4688L56.7772 15.4686ZM11.836 1.75768H48.1639C48.9725 1.75894 49.6275 2.41393 49.6288 3.22252V43.0075H10.3705V3.22252C10.3717 2.41394 11.0267 1.75897 11.8353 1.75768H11.836ZM3.22261 15.4686H8.6132V43.0073H1.75775V16.9332C1.759 16.1247 2.414 15.4697 3.22261 15.4684V15.4686ZM35.8241 56.2264L37.8385 58.242H22.1613L24.1757 56.2264C24.3411 56.0619 24.4336 55.8384 24.4336 55.6053V50.6249H35.5668V55.6053C35.5668 55.8384 35.6593 56.0619 35.8246 56.2264H35.8241ZM56.7771 48.8671H3.22261C2.41401 48.8658 1.75903 48.2108 1.75775 47.4022V44.7656H58.2426V47.4022C58.2413 48.2108 57.5863 48.8658 56.7777 48.8671H56.7771Z" fill="#333333"/>
<path d="M14.1791 11.1332H15.058V27.8323C15.0584 28.376 15.2748 28.8975 15.6594 29.2816C16.0436 29.6663 16.5651 29.8826 17.1087 29.8831H42.8895C43.4332 29.8826 43.9547 29.6663 44.3388 29.2816C44.7235 28.8974 44.9398 28.376 44.9403 27.8323V11.1332H45.8192C46.0523 11.1332 46.2758 11.0407 46.4407 10.8758C46.6056 10.7109 46.6981 10.4875 46.6981 10.2543V5.56688C46.6981 5.33376 46.6056 5.11028 46.4407 4.94538C46.2758 4.78047 46.0523 4.68799 45.8192 4.68799H14.1787C13.6932 4.68799 13.2998 5.0814 13.2998 5.56688V10.2543C13.2998 10.7398 13.6932 11.1332 14.1787 11.1332H14.1791ZM43.1827 27.8323C43.1827 27.9102 43.1517 27.9847 43.0969 28.0395C43.0421 28.0943 42.9676 28.1253 42.8897 28.1253H17.109C16.947 28.1253 16.816 27.9943 16.816 27.8323V11.1332H25.605V18.4573C25.6055 18.7398 25.7411 19.0048 25.9704 19.1701C26.1994 19.335 26.4936 19.3806 26.7619 19.2919L29.9996 18.2125L33.2374 19.2919C33.3274 19.3212 33.4211 19.3362 33.5153 19.3362C33.7484 19.3362 33.9719 19.2437 34.1368 19.0788C34.3017 18.9139 34.3942 18.6904 34.3942 18.4573V11.1332H43.1833L43.1827 27.8323ZM27.362 11.1332H32.6354V17.2374L30.2766 16.451C30.0962 16.3916 29.9011 16.3916 29.7208 16.451L27.3619 17.2374L27.362 11.1332ZM15.0576 6.44578H44.9409V9.37546H15.0576V6.44578Z" fill="#333333"/>
<path d="M41.7192 34.8037H37.0318C36.0897 34.8037 35.2192 35.3064 34.7484 36.1221C34.2776 36.9378 34.2776 37.9431 34.7484 38.7587C35.2192 39.5744 36.0898 40.0771 37.0318 40.0771H41.7192C42.6613 40.0771 43.5319 39.5745 44.0027 38.7587C44.4735 37.943 44.4735 36.9378 44.0027 36.1221C43.5318 35.3064 42.6612 34.8037 41.7192 34.8037ZM41.7192 38.3192H37.0318C36.5463 38.3192 36.1529 37.9258 36.1529 37.4404C36.1529 36.9549 36.5463 36.5615 37.0318 36.5615H41.7192C42.2047 36.5615 42.5981 36.9549 42.5981 37.4404C42.5981 37.9258 42.2047 38.3192 41.7192 38.3192Z" fill="#333333"/>
<path d="M29.4137 33.6328H21.0349C20.5494 33.6328 20.156 34.0262 20.156 34.5117C20.156 34.9972 20.5494 35.3906 21.0349 35.3906H29.4137C29.8992 35.3906 30.2926 34.9972 30.2926 34.5117C30.2926 34.0262 29.8992 33.6328 29.4137 33.6328Z" fill="#333333"/>
<path d="M16.5232 35.3901H17.7536C18.2391 35.3901 18.6325 34.9967 18.6325 34.5112C18.6325 34.0257 18.2391 33.6323 17.7536 33.6323H16.5232C16.0377 33.6323 15.6443 34.0257 15.6443 34.5112C15.6443 34.9967 16.0377 35.3901 16.5232 35.3901Z" fill="#333333"/>
<path d="M29.4134 38.3203H16.5232C16.0377 38.3203 15.6443 38.7137 15.6443 39.1992C15.6443 39.6847 16.0377 40.0781 16.5232 40.0781H29.4134C29.8989 40.0781 30.2923 39.6847 30.2923 39.1992C30.2923 38.7137 29.8989 38.3203 29.4134 38.3203Z" fill="#333333"/>
</svg>
