<svg width="60" height="60" viewBox="0 0 60 60" fill="none" xmlns="http://www.w3.org/2000/svg">
<path d="M59.8783 9.20679L55.0396 0.49711C54.8542 0.209807 54.5354 0.0361328 54.1937 0.0361328C53.8519 0.0361328 53.5331 0.209807 53.3478 0.49711L48.509 9.20679C48.4291 9.35065 48.3872 9.51266 48.3872 9.67726V54.1934C48.3872 56.268 49.4941 58.1849 51.2904 59.2218C53.0868 60.2591 55.3005 60.2591 57.0969 59.2218C58.8932 58.1849 60.0001 56.268 60.0001 54.1934V9.67726C60.0001 9.51266 59.9582 9.35065 59.8783 9.20679ZM57.8326 9.50878L56.1292 11.2122L54.8781 9.96113V9.96069C54.5001 9.5831 53.8875 9.5831 53.5094 9.96069L52.2583 11.2122L50.5553 9.50923L52.0756 6.77412H56.3126L57.8326 9.50878ZM53.226 42.5801V12.9805L54.1937 12.0127L55.1614 12.9805V42.5801H53.226ZM51.2905 12.9805V42.5801H50.3227V12.0127L51.2905 12.9805ZM50.3227 44.5156H58.0647V46.4511H50.3227V44.5156ZM57.0969 42.5801V12.9805L58.0647 12.0127V42.5801H57.0969ZM54.1937 2.96021L55.2371 4.83862H53.1504L54.1937 2.96021ZM54.1937 58.064C53.1672 58.064 52.1826 57.6561 51.4564 56.9303C50.7306 56.2041 50.3227 55.2195 50.3227 54.193V48.3866H58.0647V54.193C58.0647 55.2195 57.6568 56.2041 56.931 56.9303C56.2048 57.6561 55.2202 58.064 54.1937 58.064Z" fill="#333333"/>
<path d="M45.4839 0H4.83871C4.30429 0 3.87097 0.433327 3.87097 0.967742V3.87097H0.967742C0.433327 3.87097 0 4.3043 0 4.83871V59.0323C0 59.2889 0.101959 59.5351 0.28341 59.7166C0.464861 59.898 0.711119 60 0.967742 60H41.6129C41.8695 60 42.1158 59.898 42.2972 59.7166C42.4787 59.5351 42.5806 59.2889 42.5806 59.0323V56.129H45.4839C45.7405 56.129 45.9867 56.0271 46.1682 55.8456C46.3496 55.6642 46.4516 55.4179 46.4516 55.1613V0.967742C46.4516 0.711119 46.3496 0.464859 46.1682 0.28341C45.9867 0.101961 45.7405 0 45.4839 0ZM40.6451 58.0645H1.93548V5.80645H40.6451V58.0645ZM44.5161 54.1936H42.5806V4.83871C42.5806 4.58209 42.4787 4.33583 42.2972 4.15438C42.1158 3.97293 41.8695 3.87097 41.6129 3.87097H5.80645V1.93548H44.5161V54.1936Z" fill="#333333"/>
<path d="M4.83884 40.6453H8.7098C8.96642 40.6453 9.21269 40.5434 9.39413 40.3619C9.57558 40.1805 9.67754 39.9342 9.67754 39.6776V35.8066C9.67754 35.55 9.57558 35.3037 9.39413 35.1223C9.21268 34.9408 8.96642 34.8389 8.7098 34.8389H4.83884C4.30442 34.8389 3.87109 35.2722 3.87109 35.8066V39.6776C3.87109 39.9342 3.97305 40.1805 4.1545 40.3619C4.33595 40.5434 4.58221 40.6453 4.83884 40.6453ZM5.80658 36.7744H7.74206V38.7098H5.80658V36.7744Z" fill="#333333"/>
<path d="M4.83884 48.3875H8.7098C8.96642 48.3875 9.21269 48.2855 9.39413 48.1041C9.57558 47.9226 9.67754 47.6764 9.67754 47.4198V43.5488C9.67754 43.2922 9.57558 43.0459 9.39413 42.8645C9.21268 42.683 8.96642 42.5811 8.7098 42.5811H4.83884C4.30442 42.5811 3.87109 43.0144 3.87109 43.5488V47.4198C3.87109 47.6764 3.97305 47.9226 4.1545 48.1041C4.33595 48.2855 4.58221 48.3875 4.83884 48.3875ZM5.80658 44.5165H7.74206V46.452H5.80658V44.5165Z" fill="#333333"/>
<path d="M11.6128 42.5811H38.7096V44.5165H11.6128V42.5811Z" fill="#333333"/>
<path d="M11.6128 46.4512H34.8386V48.3867H11.6128V46.4512Z" fill="#333333"/>
<path d="M36.7744 46.4512H38.7099V48.3867H36.7744V46.4512Z" fill="#333333"/>
<path d="M4.83884 56.1292H8.7098C8.96642 56.1292 9.21269 56.0272 9.39413 55.8458C9.57558 55.6643 9.67754 55.4181 9.67754 55.1615V51.2905C9.67754 51.0339 9.57558 50.7876 9.39413 50.6062C9.21268 50.4247 8.96642 50.3228 8.7098 50.3228H4.83884C4.30442 50.3228 3.87109 50.7561 3.87109 51.2905V55.1615C3.87109 55.4181 3.97305 55.6643 4.1545 55.8458C4.33595 56.0272 4.58221 56.1292 4.83884 56.1292ZM5.80658 52.2582H7.74206V54.1937H5.80658V52.2582Z" fill="#333333"/>
<path d="M11.6128 50.3228H38.7096V52.2582H11.6128V50.3228Z" fill="#333333"/>
<path d="M11.6128 54.1934H34.8386V56.1288H11.6128V54.1934Z" fill="#333333"/>
<path d="M36.7744 54.1934H38.7099V56.1288H36.7744V54.1934Z" fill="#333333"/>
<path d="M11.6128 34.8389H38.7096V36.7744H11.6128V34.8389Z" fill="#333333"/>
<path d="M11.6128 38.7095H34.8386V40.645H11.6128V38.7095Z" fill="#333333"/>
<path d="M36.7744 38.7095H38.7099V40.645H36.7744V38.7095Z" fill="#333333"/>
<path d="M15.4839 17.419H19.3548C19.6115 17.419 19.8577 17.3171 20.0392 17.1356C20.2206 16.9541 20.3226 16.7079 20.3226 16.4513V15.4835C20.3226 14.9491 20.7559 14.5158 21.2903 14.5158C21.8247 14.5158 22.2581 14.9491 22.2581 15.4835C22.2598 15.8469 22.1155 16.1955 21.8576 16.4513C20.25 18.0502 19.3488 20.2255 19.3548 22.4927V24.1932C19.3548 24.4498 19.4568 24.6961 19.6382 24.8775C19.8197 25.059 20.066 25.1609 20.3226 25.1609H24.1935C24.4502 25.1609 24.6964 25.059 24.8779 24.8775C25.0593 24.6961 25.1613 24.4498 25.1613 24.1932V22.4927C25.16 21.9791 25.3643 21.4861 25.7285 21.1236C27.2294 19.631 28.0706 17.6001 28.0645 15.4835C28.0645 13.0633 26.7731 10.8271 24.6774 9.61702C22.5817 8.40696 19.999 8.40696 17.9032 9.61702C15.8075 10.8271 14.5161 13.0633 14.5161 15.4835V16.4513C14.5161 16.7079 14.6181 16.9542 14.7995 17.1356C14.981 17.317 15.2272 17.419 15.4839 17.419H15.4839ZM21.2903 10.6448C22.5731 10.6465 23.803 11.1568 24.7103 12.0636C25.6171 12.9708 26.1273 14.2008 26.129 15.4835C26.1338 17.0863 25.4965 18.6248 24.3599 19.755C23.6315 20.4795 23.2233 21.4654 23.2258 22.4927V23.2255H21.2903V22.4927C21.2851 20.7395 21.9824 19.0569 23.2258 17.8208C23.8475 17.2021 24.1961 16.3606 24.1936 15.4835C24.1936 14.4462 23.6401 13.488 22.7419 12.9692C21.8438 12.4507 20.7369 12.4507 19.8387 12.9692C18.9405 13.488 18.3871 14.4462 18.3871 15.4835H16.4516C16.4533 14.2008 16.9636 12.9708 17.8704 12.0636C18.7776 11.1568 20.0076 10.6466 21.2903 10.6448Z" fill="#333333"/>
<path d="M22.2579 26.1284C21.488 26.1284 20.7492 26.4343 20.205 26.9786C19.6607 27.523 19.3547 28.2618 19.3547 29.0316C19.3547 29.8014 19.6606 30.5403 20.205 31.0845C20.7493 31.6288 21.4881 31.9348 22.2579 31.9348C23.0277 31.9348 23.7666 31.6289 24.3108 31.0845C24.8551 30.5402 25.1611 29.8014 25.1611 29.0316C25.1611 28.2618 24.8552 27.5229 24.3108 26.9786C23.7665 26.4344 23.0277 26.1284 22.2579 26.1284ZM22.2579 29.9994C21.8665 29.9994 21.5135 29.7635 21.364 29.4019C21.2141 29.0403 21.2966 28.6243 21.5736 28.3473C21.8505 28.0704 22.2665 27.9879 22.6282 28.1378C22.9898 28.2873 23.2256 28.6402 23.2256 29.0316C23.2256 29.2883 23.1237 29.5345 22.9422 29.716C22.7608 29.8974 22.5145 29.9994 22.2579 29.9994Z" fill="#333333"/>
<path d="M36.7739 11.6132H38.7093V8.70993C38.7093 8.45331 38.6074 8.20705 38.4259 8.0256C38.2445 7.84415 37.9982 7.74219 37.7416 7.74219H34.8384V9.67767H36.7739V11.6132Z" fill="#333333"/>
<path d="M5.80658 9.67767H7.74206V7.74219H4.83884C4.30442 7.74219 3.87109 8.17551 3.87109 8.70993V11.6132H5.80658V9.67767Z" fill="#333333"/>
<path d="M38.7093 31.9355V29.0322H36.7739V30.9677H34.8384V32.9032H37.7416C37.9982 32.9032 38.2445 32.8012 38.4259 32.6198C38.6074 32.4383 38.7093 32.1921 38.7093 31.9355Z" fill="#333333"/>
<path d="M4.83884 32.9032H7.74206V30.9677H5.80658V29.0322H3.87109V31.9355C3.87109 32.1921 3.97305 32.4383 4.1545 32.6198C4.33595 32.8012 4.58221 32.9032 4.83884 32.9032Z" fill="#333333"/>
<path d="M36.7744 13.5488H38.7099V15.4843H36.7744V13.5488Z" fill="#333333"/>
</svg>
