<svg width="60" height="60" viewBox="0 0 60 60" fill="none" xmlns="http://www.w3.org/2000/svg">
<path d="M30.0001 5.44301V17.585L23.7831 21.1016M30 37.1196V44.4075M30 49.7958V44.4075M30 44.4075H8.43381V49.7958M30 44.4075H51.5663V49.7958M11.1522 55.2816C11.1522 56.7316 9.8834 58 8.43381 58C6.98382 58 5.89673 56.7312 5.89673 55.2816C5.89673 53.8317 6.98422 52.7446 8.43381 52.7446C9.8838 52.7446 11.1522 53.8321 11.1522 55.2816ZM30.0001 2.00003C38.518 2.00003 45.5859 8.88668 45.5859 17.5859C45.5859 26.1039 38.518 32.9908 30.0001 32.9908C21.4821 32.9908 14.5952 26.1042 14.5952 17.5859C14.5952 8.88678 21.4818 2.00003 30.0001 2.00003ZM54.1034 55.2811C54.1034 56.7311 53.0159 57.9995 51.5663 57.9995C50.1163 57.9995 48.8479 56.7307 48.8479 55.2811C48.8479 53.8312 50.1167 52.7441 51.5663 52.7441C53.0163 52.7441 54.1034 53.8316 54.1034 55.2811ZM32.7183 55.2811C32.7183 56.7311 31.4495 57.9995 30 57.9995C28.55 57.9995 27.4629 56.7307 27.4629 55.2811C27.4629 53.8312 28.5504 52.7441 30 52.7441C31.4499 52.7441 32.7183 53.8316 32.7183 55.2811Z" stroke="#3854DC" stroke-width="2" stroke-linecap="round" stroke-linejoin="round"/>
</svg>
