<svg width="60" height="60" viewBox="0 0 60 60" fill="none" xmlns="http://www.w3.org/2000/svg">
<path d="M45.1761 41.0108C46.1089 41.2119 46.9378 41.7428 47.5105 42.5057C48.0835 43.2686 48.3621 44.2127 48.2949 45.1647C48.2277 46.1162 47.8191 47.0119 47.1449 47.6869L45.723 49.2576L45.675 49.3146L45.1761 49.8045M45.1761 41.0108C45.4527 40.0057 45.275 38.9299 44.6902 38.0674C44.105 37.2046 43.1714 36.6412 42.1355 36.5265M45.1761 41.0108L41.0755 45.6131M42.1355 36.5265C42.2777 36.1335 42.3515 35.7194 42.3543 35.3015C42.3566 34.389 42.0422 33.5042 41.4644 32.798C40.8867 32.0918 40.0817 31.6082 39.1868 31.4296M42.1355 36.5265C41.0472 37.4725 36.8318 41.0108 36.8318 41.0108M39.1868 31.4296L43.9336 26.6652C44.6859 25.9156 45.1055 24.8949 45.0977 23.8324C45.0903 22.7703 44.6559 21.7558 43.893 21.0168C43.1301 20.2782 42.102 19.8766 41.0403 19.9031C39.9783 19.9293 38.9716 20.3813 38.2463 21.157C33.0443 26.709 26.5784 33.0269 24.0275 34.0629C23.554 34.2578 23.1949 34.3424 22.8882 34.3063M39.1868 31.4296L33.5082 36.1807C32.5307 36.8616 32.5698 38.0799 33.8434 39.5322C35.1169 40.9845 36.3663 41.1231 36.8318 41.0108M21.4279 41.1035C22.0045 40.5713 23.1037 38.4668 22.8882 34.3063M29.3007 48.8855C28.2299 51.0168 24.7007 54.8626 19.15 53.1951M22.8882 34.3063C22.2314 34.229 21.8151 33.5983 21.0306 32.3129C20.2314 30.8356 19.1701 29.5164 17.8982 28.4192C16.3845 27.1899 14.6038 27.1547 13.1295 28.3231C11.4627 29.6398 11.2226 31.9071 12.5479 33.8145C15.2956 37.7519 15.2737 39.5281 15.2561 41.2519C15.1984 46.7637 16.8465 50.6002 19.15 53.1951M19.15 53.1951C22.0828 56.499 26.078 57.79 28.967 57.9637C29.3607 57.9856 29.7412 57.9988 30.122 57.9988C32.5072 58.027 34.8712 57.5492 37.0583 56.5965C39.2453 55.6442 41.2055 54.2388 42.8094 52.4732L45.1761 49.8045M41.0755 45.6131C40.919 46.723 41.2195 47.9602 42.0012 48.7384C42.7208 49.4548 44.3053 49.8798 45.1761 49.8045M41.0755 45.6131C39.8751 45.7231 38.34 45.2577 37.3904 44.1405C36.2627 42.8139 36.8318 41.0108 36.8318 41.0108M12.679 13.8647L21.6433 22.8334M36.7767 6.46281V19.0057M23.0172 2L26.0797 14.1971M28.2695 20.2552L27.2911 20.3967L27.9994 21.0874L27.8312 22.0612L28.7054 21.6008L29.5797 22.0612L29.4115 21.0874L30.1198 20.3967L29.1414 20.2552L28.7054 19.3699L28.2695 20.2552ZM31.0882 8.83274L31.287 9.28021L31.5225 8.84892L32.0098 8.79884L31.6728 8.4426L31.7758 7.96252L31.3325 8.17311L30.9072 7.92729L30.9704 8.41457L30.6053 8.74281L31.0882 8.83274ZM18.7169 9.36678L18.3125 8.9825L18.2522 9.53783L17.7605 9.80463L18.2706 10.0328L18.3729 10.5832L18.7472 10.167L19.3025 10.2409L19.0222 9.75593L19.2638 9.25257L18.7169 9.36678Z" stroke="#3854DC" stroke-width="2" stroke-linecap="round"/>
</svg>
