<svg width="60" height="60" viewBox="0 0 60 60" fill="none" xmlns="http://www.w3.org/2000/svg">
<path d="M31.9256 27.5531L31.6914 27.1474C31.3333 26.5271 30.6693 26.1936 30 26.2272M28.0746 32.4472L28.3088 32.8529C28.6669 33.4731 29.3308 33.8067 30 33.7731M30 35.0001V33.7731M30 33.7731C30.2827 33.7589 30.5663 33.6792 30.8283 33.528C32.1825 32.7461 32.0104 30.7396 30.5428 30.1997L30 30.0001L29.4574 29.8005C27.9898 29.2607 27.8177 27.2541 29.1719 26.4723C29.4338 26.3211 29.7174 26.2414 30 26.2272M30 26.2272V25.0001M56.5847 23.8789H54.8253C54.4596 23.8676 54.1067 23.7398 53.8184 23.5144C53.5301 23.289 53.3212 22.9772 53.222 22.6252C52.8018 21.3066 52.2704 20.0259 51.6325 18.7981C51.4526 18.4787 51.3796 18.1097 51.424 17.746C51.4688 17.3819 51.628 17.0416 51.8797 16.7746L53.1309 15.5229C53.4366 15.2173 53.483 14.7382 53.2414 14.3798C51.2179 11.3696 48.6291 8.78075 45.6189 6.75764C45.2604 6.5161 44.7813 6.56247 44.4757 6.86813L43.224 8.11939C42.9571 8.37061 42.6167 8.5303 42.2526 8.57465C41.8889 8.61901 41.5199 8.54602 41.2006 8.36658C39.9724 7.72865 38.692 7.19677 37.3734 6.77704C37.0214 6.67784 36.7097 6.46896 36.4843 6.18065C36.2589 5.89233 36.1314 5.53949 36.1201 5.17375V3.41439C36.1201 2.98251 35.8141 2.61072 35.3903 2.52806C31.8312 1.824 28.169 1.824 24.6099 2.52806C24.1861 2.61073 23.88 2.98251 23.88 3.41439V5.17375C23.8687 5.53949 23.7413 5.89232 23.5159 6.18065C23.2905 6.46897 22.9788 6.67784 22.6268 6.77704C21.3078 7.19682 20.0274 7.7287 18.7992 8.36658C18.4794 8.54603 18.1108 8.61901 17.7472 8.57465C17.383 8.5303 17.0427 8.37061 16.7757 8.11939L15.5245 6.86813C15.2188 6.56247 14.7398 6.51609 14.3813 6.75764C11.3711 8.78075 8.7823 11.3696 6.75877 14.3798C6.51723 14.7383 6.5636 15.2173 6.86926 15.5229L8.12052 16.775C8.37214 17.042 8.53143 17.3823 8.57619 17.7464C8.62054 18.1102 8.54756 18.4791 8.36771 18.7985C7.72978 20.0264 7.1979 21.3067 6.77817 22.6252C6.67897 22.9773 6.47009 23.289 6.18178 23.5144C5.89346 23.7398 5.54062 23.8676 5.17488 23.8789H3.41552C2.98364 23.8789 2.61185 24.185 2.52919 24.6088C1.8223 28.1674 1.8223 31.8305 2.52919 35.3891C2.61186 35.8129 2.98364 36.119 3.41552 36.119H5.17488C5.54062 36.1303 5.89345 36.2577 6.18178 36.4831C6.4701 36.7085 6.67897 37.0202 6.77817 37.3723C7.19795 38.6908 7.72983 39.9712 8.36771 41.199C8.54756 41.5188 8.62054 41.8874 8.57619 42.2515C8.53143 42.6156 8.37214 42.9563 8.12052 43.2233L6.86926 44.4745C6.5636 44.7802 6.51722 45.2593 6.75877 45.6177C8.78188 48.6279 11.3707 51.2167 14.3809 53.2403C14.7394 53.4814 15.2184 53.435 15.5241 53.1298L16.7762 51.8785C17.0431 51.6269 17.3834 51.4672 17.7476 51.4228C18.1113 51.3785 18.4803 51.4515 18.7996 51.6309C20.0275 52.2693 21.3078 52.8011 22.6268 53.2209C22.9788 53.3201 23.2905 53.529 23.5159 53.8173C23.7413 54.1056 23.8688 54.4584 23.88 54.8242V56.5835C23.88 57.0154 24.1861 57.3872 24.6099 57.4699C28.1686 58.1767 31.8316 58.1767 35.3903 57.4699C35.8141 57.3872 36.1201 57.0154 36.1201 56.5835V54.8242C36.1314 54.4584 36.2589 54.1056 36.4843 53.8173C36.7097 53.5289 37.0214 53.3201 37.3734 53.2209C38.6924 52.8011 39.9728 52.2692 41.2006 51.6309C41.5204 51.4515 41.8889 51.3785 42.253 51.4228C42.6171 51.4676 42.9575 51.6269 43.2244 51.8785L44.4761 53.1298C44.7818 53.435 45.2608 53.4814 45.6193 53.2403C48.6295 51.2167 51.2183 48.6279 53.2414 45.6177C53.4829 45.2592 53.4366 44.7802 53.1309 44.4745L51.8797 43.2229C51.628 42.9559 51.4684 42.6156 51.424 42.2515C51.3796 41.8873 51.4526 41.5184 51.6325 41.199C52.2704 39.9711 52.8023 38.6908 53.222 37.3723C53.3212 37.0202 53.5301 36.7085 53.8184 36.4831C54.1067 36.2577 54.4596 36.1303 54.8253 36.119H56.5847C57.0165 36.119 57.3883 35.8129 57.471 35.3891C58.1779 31.8305 58.1779 28.1674 57.471 24.6088C57.3883 24.1849 57.0165 23.8789 56.5847 23.8789ZM39.0324 31.9041H36.3226V20.0636C36.3226 19.824 36.2274 19.5942 36.0581 19.4248C35.8887 19.2555 35.6588 19.1603 35.4193 19.1603H24.5801C24.0813 19.1603 23.6769 19.5648 23.6769 20.0636V31.9041H20.9671C20.6086 31.9041 20.2844 32.1158 20.14 32.4436C19.996 32.7719 20.0594 33.1542 20.3017 33.4183L29.3344 43.2567C29.5053 43.443 29.7469 43.549 29.9997 43.549C30.2526 43.549 30.4941 43.443 30.6651 43.2567L39.6977 33.4183C39.9401 33.1542 40.0034 32.7719 39.8594 32.4436C39.7151 32.1158 39.3909 31.9041 39.0324 31.9041ZM29.9997 11.0308C24.9689 11.0308 20.144 13.0292 16.587 16.5866C13.0296 20.1437 11.0311 24.9684 11.0311 29.9994C11.0311 35.0303 13.0296 39.8551 16.587 43.4121C20.144 46.9695 24.9688 48.968 29.9997 48.968C35.0307 48.968 39.8554 46.9695 43.4125 43.4121C46.9699 39.8551 48.9683 35.0303 48.9683 29.9994C48.9627 24.9705 46.9626 20.1489 43.4064 16.5928C39.8502 13.0366 35.0285 11.0365 29.9997 11.0308Z" stroke="#3854DC" stroke-width="2"/>
</svg>
