<svg width="60" height="60" viewBox="0 0 60 60" fill="none" xmlns="http://www.w3.org/2000/svg">
<path d="M6 9.46667H13.4667M6 17.8667H13.4667M6 26.2667H13.4667M6 34.6667H13.4667M6 43.0667H13.4667M6 51.4667H13.4667M37.7333 9.46667H48.9333M37.7333 16.9333H48.9333M37.7333 26.2667H48.9333M37.7333 33.7333H48.9333M37.7333 43.0667H48.9333M37.7333 50.5333H48.9333M9.73333 57.2998C9.73333 57.6865 10.0516 58 10.4454 58H53.8213C54.2145 58 54.5333 57.6865 54.5333 57.2998V2.70019C54.5333 2.31347 54.215 2 53.8213 2H10.4454C10.0521 2 9.73333 2.31347 9.73333 2.70019V57.2998ZM21.9298 18.8H27.4035C28.9827 18.8 30.2667 17.5154 30.2667 15.9368V10.4632C30.2667 8.88444 28.9821 7.6 27.4035 7.6H21.9298C20.3506 7.6 19.0667 8.88457 19.0667 10.4632V15.9368C19.0662 17.5156 20.3507 18.8 21.9298 18.8ZM21.9298 35.6H27.4035C28.9827 35.6 30.2667 34.3154 30.2667 32.7368V27.2632C30.2667 25.6844 28.9821 24.4 27.4035 24.4H21.9298C20.3506 24.4 19.0667 25.6846 19.0667 27.2632V32.7368C19.0662 34.3156 20.3507 35.6 21.9298 35.6ZM21.9298 52.4H27.4035C28.9827 52.4 30.2667 51.1154 30.2667 49.5368V44.0632C30.2667 42.4844 28.9821 41.2 27.4035 41.2H21.9298C20.3506 41.2 19.0667 42.4846 19.0667 44.0632V49.5368C19.0662 51.1156 20.3507 52.4 21.9298 52.4Z" stroke="#3854DC" stroke-width="2" stroke-linecap="round" stroke-linejoin="round"/>
</svg>
