<svg width="201" height="24" viewBox="0 0 201 24" fill="none" xmlns="http://www.w3.org/2000/svg">
<path d="M16.4562 12.1273H21.1671V21.1671C19.9576 22.0796 18.557 22.7798 16.9655 23.2679C15.374 23.756 13.7719 24 12.1592 24C9.84616 24 7.76658 23.5119 5.92043 22.5358C4.07427 21.5385 2.62069 20.1698 1.55968 18.4297C0.519894 16.6684 0 14.6844 0 12.4775C0 10.2706 0.519894 8.29708 1.55968 6.55703C2.62069 4.79576 4.08488 3.42706 5.95226 2.45093C7.81963 1.45358 9.92043 0.954908 12.2546 0.954908C14.2069 0.954908 15.9788 1.28382 17.5703 1.94164C19.1618 2.59947 20.4987 3.55438 21.5809 4.80637L18.2706 7.86207C16.679 6.18568 14.7586 5.34748 12.5093 5.34748C11.0875 5.34748 9.82493 5.64456 8.72149 6.23873C7.61804 6.83289 6.75862 7.67109 6.14324 8.75332C5.52785 9.83554 5.22016 11.0769 5.22016 12.4775C5.22016 13.8568 5.52785 15.0875 6.14324 16.1698C6.75862 17.252 7.60743 18.1008 8.68966 18.7162C9.79311 19.3103 11.0451 19.6074 12.4456 19.6074C13.931 19.6074 15.2679 19.2891 16.4562 18.6525V12.1273Z" fill="#333333"/>
<path d="M30.9862 8.75332C31.5804 7.92573 32.3762 7.29973 33.3735 6.87533C34.3921 6.45093 35.5592 6.23873 36.8748 6.23873V10.8223C36.3231 10.7798 35.9518 10.7586 35.7608 10.7586C34.339 10.7586 33.225 11.1618 32.4186 11.9682C31.6122 12.7533 31.2091 13.9416 31.2091 15.5332V23.618H26.2435V6.49337H30.9862V8.75332Z" fill="#333333"/>
<path d="M57.0831 15.1194C57.0831 15.183 57.0512 15.6286 56.9876 16.4562H44.0327C44.2661 17.5172 44.8178 18.3554 45.6878 18.9708C46.5579 19.5862 47.6401 19.8939 48.9345 19.8939C49.8258 19.8939 50.6109 19.7666 51.29 19.5119C51.9902 19.2361 52.6374 18.8117 53.2316 18.2387L55.8735 21.1034C54.2608 22.9496 51.9053 23.8727 48.8072 23.8727C46.8762 23.8727 45.1679 23.5013 43.6825 22.7586C42.1971 21.9947 41.0512 20.9443 40.2449 19.6074C39.4385 18.2706 39.0353 16.7533 39.0353 15.0557C39.0353 13.3793 39.4279 11.8727 40.213 10.5358C41.0194 9.17772 42.1122 8.12732 43.4916 7.38461C44.8921 6.62069 46.4518 6.23873 48.1706 6.23873C49.847 6.23873 51.3642 6.59947 52.7223 7.32096C54.0804 8.04244 55.1414 9.08223 55.9053 10.4403C56.6905 11.7772 57.0831 13.3369 57.0831 15.1194ZM48.2024 9.9947C47.0778 9.9947 46.1335 10.313 45.3695 10.9496C44.6056 11.5862 44.1388 12.4562 43.969 13.5597H52.404C52.2343 12.4775 51.7674 11.618 51.0035 10.9814C50.2396 10.3236 49.3059 9.9947 48.2024 9.9947Z" fill="#333333"/>
<path d="M77.8001 15.1194C77.8001 15.183 77.7682 15.6286 77.7046 16.4562H64.7497C64.9831 17.5172 65.5348 18.3554 66.4048 18.9708C67.2749 19.5862 68.3571 19.8939 69.6515 19.8939C70.5428 19.8939 71.3279 19.7666 72.007 19.5119C72.7072 19.2361 73.3545 18.8117 73.9486 18.2387L76.5905 21.1034C74.9778 22.9496 72.6224 23.8727 69.5242 23.8727C67.5932 23.8727 65.885 23.5013 64.3995 22.7586C62.9141 21.9947 61.7682 20.9443 60.9619 19.6074C60.1555 18.2706 59.7523 16.7533 59.7523 15.0557C59.7523 13.3793 60.1449 11.8727 60.93 10.5358C61.7364 9.17772 62.8293 8.12732 64.2086 7.38461C65.6091 6.62069 67.1688 6.23873 68.8876 6.23873C70.564 6.23873 72.0812 6.59947 73.4393 7.32096C74.7974 8.04244 75.8584 9.08223 76.6224 10.4403C77.4075 11.7772 77.8001 13.3369 77.8001 15.1194ZM68.9194 9.9947C67.7948 9.9947 66.8505 10.313 66.0865 10.9496C65.3226 11.5862 64.8558 12.4562 64.686 13.5597H73.121C72.9513 12.4775 72.4844 11.618 71.7205 10.9814C70.9566 10.3236 70.0229 9.9947 68.9194 9.9947Z" fill="#333333"/>
<path d="M92.151 6.23873C94.2731 6.23873 95.9813 6.87533 97.2757 8.14854C98.5914 9.42175 99.2492 11.3103 99.2492 13.8143V23.618H94.2837V14.5782C94.2837 13.2202 93.9866 12.2122 93.3924 11.5544C92.7983 10.8753 91.9388 10.5358 90.8142 10.5358C89.5622 10.5358 88.5648 10.9284 87.8221 11.7135C87.0794 12.4775 86.7081 13.6233 86.7081 15.1512V23.618H81.7426V6.49337H86.4853V8.49867C87.1431 7.77719 87.9601 7.22547 88.9362 6.8435C89.9123 6.44032 90.9839 6.23873 92.151 6.23873Z" fill="#333333"/>
<path d="M114.509 6.23873C116.1 6.23873 117.543 6.61008 118.838 7.35278C120.153 8.07427 121.183 9.10345 121.925 10.4403C122.668 11.756 123.039 13.2944 123.039 15.0557C123.039 16.817 122.668 18.3661 121.925 19.7029C121.183 21.0186 120.153 22.0477 118.838 22.7905C117.543 23.5119 116.1 23.8727 114.509 23.8727C112.153 23.8727 110.36 23.13 109.129 21.6446V23.618H104.387V0H109.352V8.30769C110.604 6.92838 112.323 6.23873 114.509 6.23873ZM113.649 19.7984C114.923 19.7984 115.962 19.374 116.769 18.5252C117.596 17.6552 118.01 16.4987 118.01 15.0557C118.01 13.6127 117.596 12.4668 116.769 11.618C115.962 10.748 114.923 10.313 113.649 10.313C112.376 10.313 111.326 10.748 110.498 11.618C109.692 12.4668 109.289 13.6127 109.289 15.0557C109.289 16.4987 109.692 17.6552 110.498 18.5252C111.326 19.374 112.376 19.7984 113.649 19.7984Z" fill="#333333"/>
<path d="M131.743 8.75332C132.337 7.92573 133.133 7.29973 134.13 6.87533C135.148 6.45093 136.316 6.23873 137.631 6.23873V10.8223C137.08 10.7798 136.708 10.7586 136.517 10.7586C135.095 10.7586 133.981 11.1618 133.175 11.9682C132.369 12.7533 131.965 13.9416 131.965 15.5332V23.618H127V6.49337H131.743V8.75332Z" fill="#333333"/>
<path d="M149.213 23.8727C147.41 23.8727 145.786 23.5013 144.343 22.7586C142.922 21.9947 141.808 20.9443 141.001 19.6074C140.195 18.2706 139.792 16.7533 139.792 15.0557C139.792 13.3581 140.195 11.8408 141.001 10.504C141.808 9.16711 142.922 8.12732 144.343 7.38461C145.786 6.62069 147.41 6.23873 149.213 6.23873C151.017 6.23873 152.63 6.62069 154.052 7.38461C155.473 8.12732 156.587 9.16711 157.394 10.504C158.2 11.8408 158.603 13.3581 158.603 15.0557C158.603 16.7533 158.2 18.2706 157.394 19.6074C156.587 20.9443 155.473 21.9947 154.052 22.7586C152.63 23.5013 151.017 23.8727 149.213 23.8727ZM149.213 19.7984C150.487 19.7984 151.526 19.374 152.333 18.5252C153.16 17.6552 153.574 16.4987 153.574 15.0557C153.574 13.6127 153.16 12.4668 152.333 11.618C151.526 10.748 150.487 10.313 149.213 10.313C147.94 10.313 146.89 10.748 146.062 11.618C145.235 12.4668 144.821 13.6127 144.821 15.0557C144.821 16.4987 145.235 17.6552 146.062 18.5252C146.89 19.374 147.94 19.7984 149.213 19.7984Z" fill="#333333"/>
<path d="M169.186 6.23873C171.839 6.23873 173.876 6.87533 175.298 8.14854C176.72 9.40053 177.43 11.2997 177.43 13.8462V23.618H172.783V21.4854C171.85 23.0769 170.11 23.8727 167.563 23.8727C166.247 23.8727 165.102 23.6499 164.125 23.2042C163.171 22.7586 162.438 22.1432 161.929 21.3581C161.42 20.5729 161.165 19.6817 161.165 18.6844C161.165 17.0928 161.759 15.8408 162.948 14.9284C164.157 14.0159 166.014 13.5597 168.518 13.5597H172.465C172.465 12.4775 172.136 11.6499 171.478 11.0769C170.82 10.4828 169.834 10.1857 168.518 10.1857C167.606 10.1857 166.704 10.3342 165.812 10.6313C164.942 10.9072 164.2 11.2891 163.584 11.7772L161.802 8.30769C162.736 7.64987 163.85 7.14058 165.144 6.77984C166.46 6.4191 167.807 6.23873 169.186 6.23873ZM168.804 20.5305C169.653 20.5305 170.407 20.3395 171.064 19.9576C171.722 19.5544 172.189 18.9708 172.465 18.2069V16.4562H169.059C167.022 16.4562 166.003 17.1247 166.003 18.4615C166.003 19.0981 166.247 19.6074 166.736 19.9894C167.245 20.3501 167.934 20.5305 168.804 20.5305Z" fill="#333333"/>
<path d="M200.191 0V23.618H195.448V21.6446C194.217 23.13 192.435 23.8727 190.1 23.8727C188.488 23.8727 187.023 23.5119 185.708 22.7905C184.413 22.069 183.395 21.0398 182.652 19.7029C181.909 18.3661 181.538 16.817 181.538 15.0557C181.538 13.2944 181.909 11.7454 182.652 10.4085C183.395 9.07162 184.413 8.04244 185.708 7.32096C187.023 6.59947 188.488 6.23873 190.1 6.23873C192.286 6.23873 193.994 6.92838 195.225 8.30769V0H200.191ZM190.96 19.7984C192.212 19.7984 193.252 19.374 194.079 18.5252C194.907 17.6552 195.321 16.4987 195.321 15.0557C195.321 13.6127 194.907 12.4668 194.079 11.618C193.252 10.748 192.212 10.313 190.96 10.313C189.687 10.313 188.636 10.748 187.809 11.618C186.981 12.4668 186.567 13.6127 186.567 15.0557C186.567 16.4987 186.981 17.6552 187.809 18.5252C188.636 19.374 189.687 19.7984 190.96 19.7984Z" fill="#333333"/>
</svg>
