<svg width="60" height="60" viewBox="0 0 60 60" fill="none" xmlns="http://www.w3.org/2000/svg">
<path d="M50.3678 38.3127L51.0828 37.4355C51.9013 36.4318 53.3843 36.2809 54.3881 37.0998L57.1358 39.3404C58.1391 40.1584 58.2911 41.6406 57.4744 42.6439L45.9158 56.82C45.5204 57.3049 44.9581 57.6072 44.3327 57.6707C44.2514 57.6794 44.1701 57.6833 44.0892 57.6833C43.5504 57.6833 43.0324 57.4997 42.6105 57.1557L39.8619 54.9152C38.8586 54.0971 38.7082 52.6141 39.5262 51.6108L40.1999 50.7845M50.3678 38.3127L45.5644 34.3729M50.3678 38.3127L40.1999 50.7845M45.5644 34.3729C45.7431 33.9968 45.8584 33.5849 45.8927 33.1552C45.9658 32.2506 45.6879 31.3482 45.1312 30.6798C44.8429 30.3336 44.4893 30.0544 44.0966 29.8535C44.7189 28.8393 44.822 27.5677 44.3923 26.6718C43.8095 25.4554 42.8515 25.0057 42.0913 24.8104C42.8858 23.6809 43.6243 22.0519 42.1587 20.2909C41.5881 19.6051 40.8252 19.1998 40.032 19.0923C40.3782 18.086 40.3073 16.9866 39.558 16.0476C39.0465 15.407 38.2345 14.9864 37.3295 14.8943C36.4249 14.8025 35.566 15.0478 34.905 15.5819M45.5644 34.3729C38.7027 43.5196 35.1288 43.4064 31.8264 43.9158M34.905 15.5819L30.78 14.2155C29.6502 13.8419 28.6368 13.8936 27.7657 14.3707C26.9603 14.8121 26.3223 15.5984 25.8609 16.7153M34.905 15.5819L30.7835 21.2204M25.8609 16.7153L24.5332 15.5937C23.8717 15.0344 23.0284 14.7661 22.1612 14.8405C21.2936 14.9135 20.5077 15.3184 19.9485 15.9799C19.3901 16.6413 19.1222 17.4838 19.1952 18.3509C19.2157 18.5919 19.2639 18.8263 19.334 19.0516M25.8609 16.7153C27.2081 17.6909 30.0786 19.9578 30.7835 21.2204M19.334 19.0516C18.5577 19.1711 17.8592 19.5578 17.3504 20.1636C16.5189 21.1521 16.8529 22.3958 17.3504 23.5048M19.334 19.0516L27.5618 25.9012M17.3504 23.5048C16.7098 23.6736 16.1909 23.5048 15.2312 24.65C14.207 25.8721 14.9282 27.3799 15.9098 28.5728M17.3504 23.5048L24.4931 29.3256M15.9098 28.5728C15.3887 28.765 14.2314 29.349 13.8651 29.7874C12.994 30.8307 12.8866 32.2728 13.4807 33.4162M15.9098 28.5728L22.1294 32.9635M13.4807 33.4162L8.7969 37.3159M13.4807 33.4162L14.6024 34.6914L17.1147 36.8467C17.704 37.3525 18.4382 37.6235 19.2057 37.6235C19.2961 37.6235 19.387 37.6196 19.4779 37.6122C20.3438 37.5404 21.127 37.1338 21.6841 36.4671C22.5239 35.4612 22.6531 34.0851 22.1294 32.9635M8.7969 37.3159C7.96016 36.4291 6.57023 36.3178 5.61221 37.0997L2.86361 39.3403C1.86031 40.1583 1.70897 41.6409 2.52787 42.6447L14.0865 56.8196C14.4814 57.3046 15.0442 57.6072 15.6696 57.6703C15.7509 57.6786 15.8322 57.6829 15.9131 57.6829C16.4519 57.6829 16.9699 57.4998 17.3908 57.1562L20.1394 54.9157C21.1427 54.0976 21.2945 52.6146 20.4756 51.6113L19.0217 49.8282M8.7969 37.3159L19.0217 49.8282M19.0217 49.8282L26.899 43.5196C27.3034 43.5635 27.7001 43.6113 28.088 43.6583C29.3631 43.8123 30.6074 43.9597 31.8264 43.9158M31.8264 43.9158L40.1999 50.7845M22.1294 32.9635C22.7687 32.7944 23.3393 32.4369 23.773 31.9194C24.3979 31.1731 24.6288 30.2238 24.4931 29.3256M24.4931 29.3256C24.5275 29.3239 24.5619 29.3243 24.5962 29.3213C25.4634 29.2482 26.2484 28.8429 26.806 28.1792C27.3609 27.5199 27.6057 26.7015 27.5618 25.9012M27.5618 25.9012C27.6649 25.9108 27.7662 25.9278 27.8702 25.9278C27.9632 25.9278 28.0567 25.9238 28.1502 25.9164C29.0178 25.8434 29.8037 25.4385 30.3621 24.7771C30.9205 24.1156 31.1893 23.2732 31.1158 22.4051C31.0801 21.9854 30.9657 21.5858 30.7835 21.2204M29.3923 2.31665V8.23738M15.3629 6.65002L18.3228 11.7774M5.37945 17.4172L10.5068 20.3771M49.3472 18.5218L54.4746 15.561M43.7071 5.57853L40.7467 10.7059" stroke="#3854DC" stroke-width="2" stroke-linecap="round" stroke-linejoin="round"/>
</svg>
