<svg width="64" height="64" viewBox="0 0 64 64" fill="none" xmlns="http://www.w3.org/2000/svg">
<rect width="64" height="64" rx="32" fill="#3854DC" fill-opacity="0.1"/>
<path d="M23.243 32.0491V33.1529H28.2366C28.8609 33.1529 29.367 33.659 29.367 34.2834V42.3895C29.367 43.0138 28.8609 43.5199 28.2365 43.5199H20.1304C19.5061 43.5199 19 43.0138 19 42.3895V33.046C19 28.8606 19.8409 25.7923 21.3745 23.6979C22.8824 21.6387 25.1632 20.3805 28.3726 20.0049C28.8483 19.9492 29.367 20.3484 29.367 21.0175V22.1491C29.367 22.6589 28.9729 23.2194 28.2482 23.4828C26.8581 23.988 25.7194 24.7712 24.8959 25.8604L24.8932 25.8639C23.7383 27.4038 23.243 29.5194 23.243 32.0491Z" fill="#333333"/>
<path d="M38.876 32.0491V33.1529H43.8696C44.4939 33.1529 45 33.659 45 34.2834V42.3895C45 43.0138 44.4939 43.5199 43.8696 43.5199H35.8109C35.1866 43.5199 34.6805 43.0138 34.6805 42.3895V33.046C34.6805 28.8616 35.5177 25.7934 37.0446 23.6988C38.5454 21.64 40.8145 20.3824 44.0066 20.0058C44.4812 19.9498 45 20.3481 45 21.0175V22.0911C45 22.6072 44.5869 23.1892 43.8101 23.4802C42.1711 24.0942 40.9063 25.1557 40.0698 26.6514C39.2464 28.1237 38.876 29.9469 38.876 32.0491Z" fill="#333333"/>
</svg>
