<svg width="60" height="60" viewBox="0 0 60 60" fill="none" xmlns="http://www.w3.org/2000/svg">
<path d="M45.4838 9.67676C39.6143 9.67676 34.8386 14.4524 34.8386 20.3219C34.8386 26.1914 39.6143 30.9671 45.4838 30.9671C51.3533 30.9671 56.129 26.1914 56.129 20.3219C56.129 14.4524 51.3533 9.67676 45.4838 9.67676ZM45.4838 29.0316C40.6809 29.0316 36.7741 25.1239 36.7741 20.3219C36.7741 15.5199 40.6809 11.6122 45.4838 11.6122C50.2867 11.6122 54.1935 15.5199 54.1935 20.3219C54.1935 25.1239 50.2867 29.0316 45.4838 29.0316Z" fill="#333333"/>
<path d="M60 20.322C60 12.6449 54.0048 6.35668 46.4516 5.85567V1C46.4516 0.447716 46.0039 0 45.4516 0H4.87097C4.31868 0 3.87097 0.447715 3.87097 1V32.9032H0.999999C0.447715 32.9032 0 33.351 0 33.9032V53.1936C0 53.7458 0.447715 54.1936 1 54.1936H29.9678C30.52 54.1936 30.9678 53.7458 30.9678 53.1936V52.2581H34.6102L37.0507 53.4785C37.9856 53.946 39.0337 54.1935 40.0801 54.1935H40.6452V55.1613C40.6452 57.8295 42.8157 60 45.4839 60C48.1521 60 50.3226 57.8295 50.3226 55.1613V54.1935H51.2904C52.8911 54.1935 54.1936 52.891 54.1936 51.2903C54.1936 50.5442 53.9024 49.8698 53.4389 49.3548C53.9033 48.8399 54.1936 48.1654 54.1936 47.4193C54.1936 46.6732 53.9024 45.9988 53.4389 45.4839C53.9033 44.9689 54.1936 44.2945 54.1936 43.5484C54.1936 42.8023 53.9024 42.1278 53.4389 41.6129C53.9033 41.0979 54.1936 40.4235 54.1936 39.6774C54.1936 38.0767 52.8911 36.7742 51.2904 36.7742H50.7525C51.0852 36.2022 51.2904 35.5472 51.2904 34.8387C51.2904 34.4391 51.1685 34.0675 50.9594 33.7578C56.2557 31.592 60 26.3894 60 20.322ZM5.80645 1.93493H44.5161V5.85512C36.963 6.35671 30.9678 12.6449 30.9678 20.3215C30.9678 25.737 33.9544 30.4616 38.3623 32.9563C36.8856 33.1335 35.5153 33.7819 34.4382 34.8378H30.9678V33.9024C30.9678 33.3501 30.52 32.9024 29.9678 32.9024H5.80645V1.93493ZM23.2258 34.8382V52.2575H21.2903V34.8382H23.2258ZM1.93548 34.8382H19.3548V52.2575H1.93548V34.8382ZM29.0323 52.2575H25.1613V34.8382H29.0323V52.2575ZM48.3871 55.1608C48.3871 56.7615 47.0846 58.064 45.4839 58.064C43.8832 58.064 42.5807 56.7615 42.5807 55.1608V38.7091H44.6941C44.5857 39.0129 44.5161 39.3364 44.5161 39.6769C44.5161 40.423 44.8073 41.0974 45.2709 41.6124C44.8064 42.1273 44.5161 42.8017 44.5161 43.5478C44.5161 44.2939 44.8073 44.9684 45.2709 45.4833C44.8064 45.9983 44.5161 46.6727 44.5161 47.4188C44.5161 48.1649 44.8073 48.8394 45.2709 49.3543C44.8064 49.8693 44.5161 50.5437 44.5161 51.2898C44.5161 52.8905 45.8186 54.193 47.4193 54.193H48.3871L48.3871 55.1608ZM52.2581 43.5478C52.2581 44.0818 51.8243 44.5156 51.2903 44.5156H47.4194C46.8854 44.5156 46.4516 44.0818 46.4516 43.5478C46.4516 43.0139 46.8854 42.5801 47.4194 42.5801H51.2903C51.8243 42.5801 52.2581 43.0139 52.2581 43.5478ZM52.2581 47.4188C52.2581 47.9528 51.8243 48.3866 51.2903 48.3866H47.4194C46.8854 48.3866 46.4516 47.9528 46.4516 47.4188C46.4516 46.8848 46.8854 46.4511 47.4194 46.4511H51.2903C51.8243 46.4511 52.2581 46.8848 52.2581 47.4188ZM51.2903 52.2575H47.4194C46.8854 52.2575 46.4516 51.8238 46.4516 51.2898C46.4516 50.7558 46.8854 50.322 47.4194 50.322H51.2903C51.8243 50.322 52.2581 50.7558 52.2581 51.2898C52.2581 51.8238 51.8243 52.2575 51.2903 52.2575ZM52.2581 39.6769C52.2581 40.2109 51.8243 40.6446 51.2903 40.6446H47.4194C46.8854 40.6446 46.4516 40.2109 46.4516 39.6769C46.4516 39.1429 46.8854 38.7091 47.4194 38.7091H51.2903C51.8243 38.7091 52.2581 39.1429 52.2581 39.6769ZM49.3549 34.8382C49.3549 35.9057 48.4869 36.7737 47.4194 36.7737H40.2447L39.7271 37.2912C38.8121 38.205 37.5976 38.7091 36.3051 38.7091H34.8388V40.6446H36.3051C37.9105 40.6446 39.4291 40.0851 40.6452 39.0651V52.2574H40.0801C39.3331 52.2574 38.5848 52.0802 37.9173 51.7463L35.0672 50.3219H30.9677V36.7735H35.2392L35.7568 36.2559C36.6705 35.3422 37.8858 34.838 39.1788 34.838L49.3549 34.8382ZM45.4839 32.9027C38.5472 32.9027 32.9032 27.2587 32.9032 20.322C32.9032 13.3854 38.5472 7.74139 45.4839 7.74139C52.4206 7.74139 58.0645 13.3854 58.0645 20.322C58.0645 27.2587 52.4206 32.9027 45.4839 32.9027Z" fill="#333333"/>
<path d="M43.5485 21.8573L42.2974 20.6058L40.9287 21.9745L43.5486 24.5939L51.0072 17.1358L49.6385 15.7671L43.5485 21.8573Z" fill="#333333"/>
<path d="M7.74194 23.2255H29.0323V3.87061H7.74194V23.2255ZM16.4516 11.6125C16.4516 10.545 17.3196 9.67706 18.3871 9.67706C19.4546 9.67706 20.3226 10.545 20.3226 11.6125C20.3226 12.6801 19.4546 13.548 18.3871 13.548C17.3196 13.548 16.4516 12.6801 16.4516 11.6125ZM18.3871 15.4835C21.0553 15.4835 23.2258 17.654 23.2258 20.3222V21.29H13.5484V20.3222C13.5484 17.654 15.7189 15.4835 18.3871 15.4835ZM9.67743 5.80609H27.0968V21.29H25.1613V20.3222C25.1613 17.6117 23.5567 15.2744 21.2514 14.1926C21.8709 13.5065 22.258 12.6075 22.258 11.6125C22.258 9.47787 20.5217 7.74157 18.3871 7.74157C16.2524 7.74157 14.5161 9.47787 14.5161 11.6125C14.5161 12.6075 14.9032 13.5066 15.5227 14.1926C13.2174 15.2744 11.6128 17.6117 11.6128 20.3222V21.29H9.67734L9.67743 5.80609Z" fill="#333333"/>
<path d="M7.74194 25.1606H9.67743V27.0961H7.74194V25.1606Z" fill="#333333"/>
<path d="M11.6128 25.1606H29.0322V27.0961H11.6128V25.1606Z" fill="#333333"/>
<path d="M7.74194 29.0317H29.0323V30.9672H7.74194V29.0317Z" fill="#333333"/>
</svg>
