<svg width="60" height="60" viewBox="0 0 60 60" fill="none" xmlns="http://www.w3.org/2000/svg">
<path d="M31.1113 15.6887H47.5557M20.6669 2H54.2667C56.3201 2 57.9998 3.68021 57.9998 5.73353L58.0002 54.2665C58.0002 56.3199 56.32 58 54.2667 58H20.6669M20.6669 2H5.73377C3.68045 2 2.00024 3.6801 2.00024 5.73353V54.2665C2.00024 56.3198 3.68034 58 5.73377 58H20.6669M20.6669 2V58M7.22275 32.7598V9.46672C7.22275 8.78229 7.78261 8.22239 8.46707 8.22239H14.6892C15.3737 8.22239 15.9336 8.78226 15.9336 9.46672V32.7598M7.22275 32.7598V38.0887C7.22275 38.7732 7.78265 39.333 8.46707 39.333H14.6892C15.3737 39.333 15.9336 38.7731 15.9336 38.0887V32.7598M7.22275 32.7598H15.9336M11.5782 43.0663C9.15151 43.0663 7.22275 44.9951 7.22275 47.4217C7.22275 49.8484 9.15151 51.7772 11.5782 51.7772C14.0048 51.7772 15.9336 49.8484 15.9336 47.4217C15.9336 44.9951 14.0048 43.0663 11.5782 43.0663ZM50.5333 8.22217H28.1335C27.449 8.22217 26.8892 8.78207 26.8892 9.4665V21.9108C26.8892 22.5953 27.4491 23.1552 28.1335 23.1552H50.5333C51.2178 23.1552 51.7776 22.5953 51.7776 21.9108V9.4665C51.7776 8.78203 51.2177 8.22217 50.5333 8.22217Z" stroke="#3854DC" stroke-width="2" stroke-linecap="round"/>
</svg>
