<svg width="158" height="131" viewBox="0 0 158 131" fill="none" xmlns="http://www.w3.org/2000/svg">
<path opacity="0.2" d="M1.14118 7.31449C2.01622 14.0343 3.76824 20.6106 6.35249 26.8755C7.92528 30.9108 9.85039 35.3169 12.0453 39.9441C14.3678 44.9105 17.032 49.7099 20.0189 54.3077C21.636 56.7772 23.4138 59.1377 25.3406 61.3741C27.3133 63.7196 29.4929 65.8829 31.8531 67.8379C34.2486 69.869 36.876 71.6092 39.6807 73.0223C42.4935 74.4901 45.4928 75.5687 48.5961 76.2285L49.1126 76.3237C49.0949 76.1452 49.0425 75.9589 49.0125 75.7703C47.9161 68.6408 49.1645 61.3487 52.5699 54.991C54.3318 51.785 56.728 48.9714 59.6126 46.7216C62.6325 44.3629 66.2068 42.8177 69.9943 42.2337C71.9819 41.8652 74.0156 41.8157 76.019 42.0872C78.2662 42.375 80.4184 43.1712 82.312 44.4154C84.1201 45.6696 85.6432 47.2912 86.7817 49.1743C87.9202 51.0573 88.6484 53.1593 88.9188 55.3429C89.4066 59.2988 88.4927 63.3003 86.3357 66.6517C84.3783 69.732 81.8328 72.3963 78.8448 74.4922C75.9246 76.5787 72.6997 78.2018 69.284 79.3044C65.018 80.6708 60.5502 81.3003 56.0724 81.1659C56.4327 82.1126 56.8555 83.0342 57.3381 83.9248C60.1471 89.1996 64.0933 93.7845 68.8912 97.3477C73.3425 100.701 78.2755 103.361 83.5226 105.238C88.0962 106.9 92.8554 107.999 97.6949 108.509C101.818 108.847 105.962 108.814 110.079 108.408C116.525 107.84 122.89 106.567 129.058 104.611C133.207 103.333 137.252 101.742 141.159 99.8517C144.285 98.3138 146.496 97.092 148.189 96.1017C149.673 95.2674 150.628 94.6769 151.386 94.2526L150.092 94.1555C146.402 93.879 143.07 93.567 140.266 93.2366C134.666 92.5634 131.118 91.8899 131.153 91.2217C131.188 90.5535 134.575 90.1726 140.149 90.0258C142.946 89.9401 146.258 89.9274 149.947 89.9786L151.346 89.9977C151.948 89.9994 152.549 90.0529 153.142 90.1576C153.522 90.2311 153.894 90.3375 154.255 90.4754C154.715 90.65 155.148 90.8876 155.542 91.1816C156.354 91.787 156.952 92.6356 157.248 93.6039C157.548 94.86 157.608 96.1612 157.426 97.4395L157.25 100.431C155.968 117.008 153.934 130.324 152.663 130.123C151.393 129.923 151.382 116.325 152.652 99.7379L152.841 97.556C152.166 98.1991 151.451 98.797 150.698 99.3458C148.486 101.028 146.151 102.54 143.711 103.869C139.717 106.098 135.526 107.954 131.192 109.414C124.723 111.654 118.013 113.124 111.2 113.795C106.718 114.254 102.203 114.295 97.7139 113.915C92.363 113.382 87.0997 112.182 82.0467 110.341C76.1982 108.252 70.7044 105.278 65.757 101.523C60.2207 97.3821 55.6831 92.0529 52.4781 85.9275C51.5473 84.1664 50.7971 82.3155 50.2391 80.4034C49.5397 80.2811 48.8402 80.1589 48.1587 79.9899C44.6911 79.2004 41.3454 77.9479 38.2116 76.2663C35.1666 74.6477 32.3205 72.6801 29.7307 70.4031C27.2394 68.2537 24.9484 65.8824 22.8861 63.3186C20.9202 60.9453 19.1134 58.4445 17.4776 55.8327C14.5144 51.0648 11.9069 46.085 9.6762 40.9338C7.56389 36.1557 5.77011 31.6728 4.29484 27.485C1.8918 21.0138 0.457681 14.2234 0.0389036 7.33361C-0.0464834 5.50511 0.00873609 3.67279 0.204082 1.85282C0.37443 0.619122 0.472977 0.0234731 0.594598 0.000151721C0.716218 -0.0231696 0.643165 2.64305 1.16572 7.33459L1.14118 7.31449ZM54.5353 75.3356C54.6108 75.8689 54.731 76.3978 54.8512 76.9267C59.1827 77.1039 63.5095 76.4802 67.6143 75.0871C70.6094 74.0625 73.4301 72.5861 75.9788 70.709C78.497 68.8902 80.6311 66.5919 82.2586 63.9461C83.8188 61.4402 84.4558 58.4684 84.06 55.5428C83.8827 54.1037 83.4042 52.718 82.6557 51.476C81.9072 50.234 80.9054 49.1636 79.7157 48.3345C77.1547 46.9007 74.1518 46.4713 71.2921 47.1301C68.2947 47.6313 65.4758 48.8921 63.1043 50.7921C60.7649 52.6961 58.8339 55.0526 57.4269 57.7206C55.9982 60.3913 55.0176 63.2784 54.5242 66.2669C54.0098 69.2607 54.0053 72.3199 54.5108 75.3155" fill="#333333"/>
</svg>
